<mxfile host="app.diagrams.net" modified="2023-08-30T19:55:43.593Z" agent="Mozilla/5.0 (Windows NT 10.0; Win64; x64) AppleWebKit/537.36 (KHTML, like Gecko) Chrome/115.0.0.0 Safari/537.36 OPR/101.0.0.0" etag="kZadYkFXDo5UcA9Hhya7" version="21.7.1" type="google">
  <diagram name="Página-1" id="x07Eo4sdW1-GUhnXbOYE">
    <mxGraphModel grid="1" page="1" gridSize="10" guides="1" tooltips="1" connect="1" arrows="1" fold="1" pageScale="1" pageWidth="1169" pageHeight="827" math="0" shadow="0">
      <root>
        <mxCell id="0" />
        <mxCell id="1" parent="0" />
        <mxCell id="5AazV6S9SAedZ6uLF2Ar-4" style="edgeStyle=none;curved=1;rounded=0;orthogonalLoop=1;jettySize=auto;html=1;fontSize=12;startSize=8;endSize=8;" edge="1" parent="1" source="5AazV6S9SAedZ6uLF2Ar-5" target="5AazV6S9SAedZ6uLF2Ar-7">
          <mxGeometry relative="1" as="geometry" />
        </mxCell>
        <mxCell id="5AazV6S9SAedZ6uLF2Ar-19" style="edgeStyle=orthogonalEdgeStyle;rounded=0;orthogonalLoop=1;jettySize=auto;html=1;" edge="1" parent="1" source="5AazV6S9SAedZ6uLF2Ar-5" target="5AazV6S9SAedZ6uLF2Ar-18">
          <mxGeometry relative="1" as="geometry" />
        </mxCell>
        <mxCell id="5AazV6S9SAedZ6uLF2Ar-5" value="Aluno" style="shape=umlActor;verticalLabelPosition=bottom;verticalAlign=top;html=1;outlineConnect=0;" vertex="1" parent="1">
          <mxGeometry x="100" y="67.5" width="30" height="60" as="geometry" />
        </mxCell>
        <mxCell id="5AazV6S9SAedZ6uLF2Ar-7" value="Escolhe uma carta para virar" style="ellipse;whiteSpace=wrap;html=1;" vertex="1" parent="1">
          <mxGeometry x="230" y="-70" width="180" height="90" as="geometry" />
        </mxCell>
        <mxCell id="5AazV6S9SAedZ6uLF2Ar-14" value="&lt;font style=&quot;font-size: 17px;&quot;&gt;Atividade de Artes&lt;br&gt;&lt;br&gt;Jogo da memória&lt;/font&gt;" style="text;html=1;strokeColor=none;fillColor=none;align=center;verticalAlign=middle;whiteSpace=wrap;rounded=0;fontSize=16;" vertex="1" parent="1">
          <mxGeometry x="380" y="-160" width="320" height="30" as="geometry" />
        </mxCell>
        <mxCell id="5AazV6S9SAedZ6uLF2Ar-21" value="" style="edgeStyle=orthogonalEdgeStyle;rounded=0;orthogonalLoop=1;jettySize=auto;html=1;" edge="1" parent="1" source="5AazV6S9SAedZ6uLF2Ar-18" target="5AazV6S9SAedZ6uLF2Ar-20">
          <mxGeometry relative="1" as="geometry" />
        </mxCell>
        <mxCell id="5AazV6S9SAedZ6uLF2Ar-18" value="Escolhe outra carta" style="ellipse;whiteSpace=wrap;html=1;" vertex="1" parent="1">
          <mxGeometry x="230" y="52.5" width="180" height="90" as="geometry" />
        </mxCell>
        <mxCell id="5AazV6S9SAedZ6uLF2Ar-24" style="edgeStyle=orthogonalEdgeStyle;rounded=0;orthogonalLoop=1;jettySize=auto;html=1;entryX=0.5;entryY=1;entryDx=0;entryDy=0;" edge="1" parent="1" source="5AazV6S9SAedZ6uLF2Ar-20" target="5AazV6S9SAedZ6uLF2Ar-23">
          <mxGeometry relative="1" as="geometry" />
        </mxCell>
        <mxCell id="5AazV6S9SAedZ6uLF2Ar-28" style="edgeStyle=orthogonalEdgeStyle;rounded=0;orthogonalLoop=1;jettySize=auto;html=1;entryX=0.5;entryY=0;entryDx=0;entryDy=0;exitX=1;exitY=0.5;exitDx=0;exitDy=0;" edge="1" parent="1" source="5AazV6S9SAedZ6uLF2Ar-20" target="5AazV6S9SAedZ6uLF2Ar-7">
          <mxGeometry relative="1" as="geometry">
            <mxPoint x="871.4" y="-25.680000000000007" as="sourcePoint" />
            <mxPoint x="710.0396103067893" y="-179.99980515339456" as="targetPoint" />
            <Array as="points">
              <mxPoint x="790" y="98" />
              <mxPoint x="790" y="-90" />
              <mxPoint x="320" y="-90" />
            </Array>
          </mxGeometry>
        </mxCell>
        <mxCell id="5AazV6S9SAedZ6uLF2Ar-20" value="Iguais?" style="rhombus;whiteSpace=wrap;html=1;" vertex="1" parent="1">
          <mxGeometry x="545" y="57.5" width="80" height="80" as="geometry" />
        </mxCell>
        <mxCell id="5AazV6S9SAedZ6uLF2Ar-27" style="edgeStyle=orthogonalEdgeStyle;rounded=0;orthogonalLoop=1;jettySize=auto;html=1;" edge="1" parent="1" source="5AazV6S9SAedZ6uLF2Ar-23" target="5AazV6S9SAedZ6uLF2Ar-7">
          <mxGeometry relative="1" as="geometry" />
        </mxCell>
        <mxCell id="5AazV6S9SAedZ6uLF2Ar-23" value="Vira as duas cartas novamente" style="ellipse;whiteSpace=wrap;html=1;" vertex="1" parent="1">
          <mxGeometry x="522" y="-65" width="125" height="80" as="geometry" />
        </mxCell>
        <mxCell id="5AazV6S9SAedZ6uLF2Ar-25" value="nao" style="text;html=1;strokeColor=none;fillColor=none;align=center;verticalAlign=middle;whiteSpace=wrap;rounded=0;" vertex="1" parent="1">
          <mxGeometry x="525" y="22.5" width="60" height="30" as="geometry" />
        </mxCell>
        <mxCell id="5AazV6S9SAedZ6uLF2Ar-29" value="sim" style="text;html=1;strokeColor=none;fillColor=none;align=center;verticalAlign=middle;whiteSpace=wrap;rounded=0;" vertex="1" parent="1">
          <mxGeometry x="670" y="57.5" width="60" height="30" as="geometry" />
        </mxCell>
      </root>
    </mxGraphModel>
  </diagram>
</mxfile>
